<svg width="18" height="22" viewBox="0 0 18 22" fill="none" xmlns="http://www.w3.org/2000/svg">
<path d="M3.75 16.75V10.25C3.75 9.85218 3.59196 9.47064 3.31066 9.18934C3.02936 8.90804 2.64782 8.75 2.25 8.75C1.85218 8.75 1.47064 8.90804 1.18934 9.18934C0.908035 9.47064 0.75 9.85218 0.75 10.25V14.75C0.75 15.2804 0.960714 15.7891 1.33579 16.1642C1.71086 16.5393 2.21957 16.75 2.75 16.75H3.75ZM3.75 16.75V12.75H13.75V16.75M3.75 16.75H13.75M13.75 16.75V10.25C13.75 9.85218 13.908 9.47064 14.1893 9.18934C14.4706 8.90804 14.8522 8.75 15.25 8.75C15.6478 8.75 16.0294 8.90804 16.3107 9.18934C16.592 9.47064 16.75 9.85218 16.75 10.25V14.75C16.75 15.2804 16.5393 15.7891 16.1642 16.1642C15.7891 16.5393 15.2804 16.75 14.75 16.75H13.75ZM3.75 20.75H13.75M11.25 20.75H6.25V16.75H11.25V20.75Z" stroke="black" stroke-width="1.5" stroke-linecap="round" stroke-linejoin="round"/>
<path d="M15.25 8.75V6.75C15.25 3.922 15.25 2.507 14.371 1.629C13.493 0.75 12.078 0.75 9.25 0.75H8.25C5.422 0.75 4.007 0.75 3.129 1.629C2.25 2.507 2.25 3.922 2.25 6.75V8.75" stroke="black" stroke-width="1.5" stroke-linecap="round" stroke-linejoin="round"/>
</svg>
